<svg xmlns="http://www.w3.org/2000/svg" viewBox="0 0 32 32"><defs><style>.cls-1{fill:none;stroke:gray;stroke-linejoin:round;stroke-width:2px;}.cls-2{fill:gray;}</style></defs><title>AR_Icon</title><g id="Layer_2" data-name="Layer 2"><g id="Mappa"><g id="TabBar_copy_2" data-name="TabBar copy 2"><polyline class="cls-1" points="31 24.07 31 31 24.07 31"/><polyline class="cls-1" points="7.93 31 1 31 1 24.07"/><polyline class="cls-1" points="1 7.93 1 1 7.93 1"/><polyline class="cls-1" points="24.07 1 31 1 31 7.93"/><path class="cls-2" d="M17.84,8.12a1.27,1.27,0,0,0-.09,1.69,1.77,1.77,0,0,0,1.16.71,9.65,9.65,0,0,1-.78-1,1.56,1.56,0,0,1-.19-.76.52.52,0,0,1,.43-.55.58.58,0,0,1,.7.32,4.56,4.56,0,0,1,.25,1,7.61,7.61,0,0,1,0,.78c.06,1.22.13,2.44.18,3.66,0,.52,0,1,0,1.56s.06.82.1,1.22c.06.67.14,1.34.2,2,0,.07,0,.14,0,.23-.39,0-.78.05-1.16.12s-.72.18-1.08.28c-.18.05-.36.13-.54.17a14.88,14.88,0,0,0-3,1,2.29,2.29,0,0,1-.67.2,2.81,2.81,0,0,0-1.37.49l-.19.09A10.47,10.47,0,0,1,12,20.13c.14-.49.34-1,.52-1.44a.6.6,0,0,0,0-.12,4.83,4.83,0,0,1,.81-1.81,2.78,2.78,0,0,0,.21-2.06,1.2,1.2,0,0,0-.23-.41c-.1-.14-.22-.27-.33-.4a1.47,1.47,0,0,1-.29-1,.3.3,0,0,0-.22-.34c-.17-.07-.31-.21-.5-.31l.29.44a.73.73,0,0,1,.13.27c0,.27,0,.54.06.83a1.48,1.48,0,0,0-1.32.39,1,1,0,0,0-.16.47,1,1,0,0,1,.67-.58,1.48,1.48,0,0,1,.89-.06.54.54,0,0,1,.35.88,1.38,1.38,0,0,1-1.66.44.68.68,0,0,1-.31-.41,11.41,11.41,0,0,1-.05-2.9,1.84,1.84,0,0,1,.88-1.38,7.22,7.22,0,0,0,1-.8A.64.64,0,0,0,12.88,9c-.13-.3-.27-.59-.39-.9a1.33,1.33,0,0,0-.75-.75,6,6,0,0,1-.63-.3.84.84,0,0,1-.42-.91c0-.09,0-.19,0-.28s.07-.43.11-.65a2,2,0,0,0,0-.23,1.33,1.33,0,0,1,1.37-1.33,1.26,1.26,0,0,0,.4-.08,1.11,1.11,0,0,1,1.23.2,5.65,5.65,0,0,1,.41.48,1.41,1.41,0,0,0,.26.25.74.74,0,0,1,.36.61,1.7,1.7,0,0,0,.08.44.78.78,0,0,1-.15.75.91.91,0,0,0-.13.88A1.41,1.41,0,0,0,16,8.34a4,4,0,0,0,.7.07,3,3,0,0,0,.61-.14Z"/><path class="cls-2" d="M15.78,21.81c.46,0,.91,0,1.36,0,.19,0,.37.1.55.12s.51,0,.76,0c0,0,.12,0,.15,0a1,1,0,0,0,.83,0,.46.46,0,0,1,.22,0l.37.16a6.45,6.45,0,0,1-.27,1.76c-.06.23-.12.46-.17.69a1.82,1.82,0,0,0,0,1,5.07,5.07,0,0,1,.14.69l-.08,0-1.16-2.48h0a.69.69,0,0,0,0,.13,16.49,16.49,0,0,0,1.33,3.27,1.31,1.31,0,0,1,.25,1c0,.08,0,.18.07.26l.16.46h-1.9a5.76,5.76,0,0,1-.29-1.85c0-.47-.09-.95-.13-1.42a.31.31,0,0,0-.36-.32h-.81c.21.27.35.56.74.54,0,.07,0,.13,0,.19a1.55,1.55,0,0,0,.21.78,1.08,1.08,0,0,1,.11.5c.05.52.09,1,.13,1.57l-.2,0H14.56c-.07,0-.2-.05-.21-.11a5.53,5.53,0,0,1-.28-2.31,2,2,0,0,1,.63-1.16l.51-.52a1.81,1.81,0,0,0-1.05.75l0,0,.54-2.35A7.65,7.65,0,0,0,13.94,29h-1l-.13,0c0-.39,0-.77,0-1.15a.66.66,0,0,0-.06-.29,6.48,6.48,0,0,1-.76-3c0-.09,0-.17,0-.22l.6-.29s.06,0,.07,0c.23.17.37,0,.46-.15.25-.36.46-.74.69-1.11l-.06,0-.5.53a3,3,0,0,1-1.29.84c-.21.06-.29-.07-.42-.16s-.08-.19,0-.31a.77.77,0,0,0,0-.25A9.59,9.59,0,0,0,13.61,22l-1.13.62a1.09,1.09,0,0,1-.9.17c.1-.18,0-.24-.16-.3a1.67,1.67,0,0,1-.43-.26.2.2,0,0,1,0-.19s.12,0,.17-.08.19-.07.2-.13c.07-.24.23-.29.45-.28a.5.5,0,0,0,.32-.07A1.85,1.85,0,0,1,13.26,21a3.32,3.32,0,0,0,1.14-.37,7.12,7.12,0,0,1,.83-.34.57.57,0,0,1,.31,0l-.19.12a1.84,1.84,0,0,0-.89,1.21.28.28,0,0,0,0,.13.58.58,0,0,0,.09.13s.09-.05.11-.09a3,3,0,0,1,1.57-1.66c.36-.19.78-.25,1.16-.4a6.67,6.67,0,0,1,1.82-.4l.29,0c.52,0,.62,0,.81.52a.29.29,0,0,1-.09.25,3,3,0,0,1-1.65.71,7.65,7.65,0,0,0-2.74,1S15.78,21.8,15.78,21.81Z"/></g></g></g></svg>