<svg xmlns="http://www.w3.org/2000/svg" viewBox="0 0 29.86 21.78"><defs><style>.cls-1{fill:#fff;}</style></defs><title>Binicolo</title><g id="Layer_2" data-name="Layer 2"><g id="AR"><g id="TopBar"><path class="cls-1" d="M0,14.6c0-.2.09-.4.12-.6a6.14,6.14,0,0,1,1.23-2.65c.88-1.23,1.72-2.49,2.59-3.74.69-1,1.37-2,2.1-3a3.24,3.24,0,0,1,1.8-1.15,4.86,4.86,0,0,1,4.43.85,2.3,2.3,0,0,1,.94,1.52,3,3,0,0,0,.1.35l.56-.71a1.28,1.28,0,0,1,1.77-.39,2.94,2.94,0,0,1,.62.64,5.16,5.16,0,0,1,.32.47,1.84,1.84,0,0,0,.12-.35,2.23,2.23,0,0,1,1-1.62,4.79,4.79,0,0,1,3.36-.93A4.21,4.21,0,0,1,23.21,4a4.93,4.93,0,0,1,1.15,1.32l3.09,4.46c.6.87,1.25,1.71,1.78,2.62a7.62,7.62,0,0,1,.53,1.67c0,.16.07.32.1.48v1.19L29.8,16a11.21,11.21,0,0,1-.25,1.16,6.28,6.28,0,0,1-3.45,4,6.4,6.4,0,0,1-9-4.78A14.76,14.76,0,0,1,17,14.25a1.83,1.83,0,0,0-1.26-1.72,3.77,3.77,0,0,0-1.72,0,1.28,1.28,0,0,0-.54.32,2.05,2.05,0,0,0-.56,1.38,14,14,0,0,1-.09,2,6.25,6.25,0,0,1-3.67,4.9A6.18,6.18,0,0,1,3.39,21a6.23,6.23,0,0,1-3.2-4.24c-.08-.32-.13-.64-.19-1S0,15,0,14.6Zm1.85.59A4.74,4.74,0,1,0,6.6,10.44,4.74,4.74,0,0,0,1.85,15.19ZM28,15.06a4.56,4.56,0,1,0-4.56,4.56A4.58,4.58,0,0,0,28,15.06ZM14.88,10.43A1.89,1.89,0,0,0,16,10a.56.56,0,0,0,.07-.9,1.79,1.79,0,0,0-2.42,0,.51.51,0,0,0-.07.78A1.62,1.62,0,0,0,14.88,10.43Z"/><path class="cls-1" d="M22.35,2.65a6.7,6.7,0,0,0-2.74-.12,5.48,5.48,0,0,0-2.5,1.09s0,0,0-.06a2.72,2.72,0,0,0,0-1.38A1.57,1.57,0,0,1,17.67.52,2.17,2.17,0,0,1,20,.22a1.22,1.22,0,0,1,.68,1.19c0,.18.06.25.22.3a3.21,3.21,0,0,1,1.26.73Z"/><path class="cls-1" d="M12.78,3.65a6.14,6.14,0,0,0-5.27-1A3.14,3.14,0,0,1,8,2.2,10.81,10.81,0,0,1,9,1.7c.11-.05.19-.09.18-.23A1.34,1.34,0,0,1,10.37,0a2.15,2.15,0,0,1,2.42,1.44.93.93,0,0,1,0,.51,2.44,2.44,0,0,0,0,1.54A.55.55,0,0,1,12.78,3.65Z"/></g></g></g></svg>