<svg xmlns="http://www.w3.org/2000/svg" viewBox="0 0 50 50"><defs><style>.cls-1{fill:#738cc6;}.cls-2{fill:#fff;}</style></defs><title>Museum</title><g id="Layer_2" data-name="Layer 2"><g id="Maps"><g id="Museum"><circle class="cls-1" cx="25" cy="25" r="25"/><path class="cls-2" d="M7.91,37.74l1.25,0c.17,0,.22-.07.22-.23,0-.61,0-1.22,0-1.85h2.06V34.23H38.55v1.43h2.09v.83c0,.33,0,.66,0,1s.06.29.28.28c.39,0,.78,0,1.18,0v1.46H7.91Z"/><path class="cls-2" d="M10.06,17.84a5.84,5.84,0,0,1,0-.73.32.32,0,0,1,.19-.22L17,14.06l6-2.53c.57-.24,1.14-.49,1.71-.71a.75.75,0,0,1,.49,0l4.2,1.75,6.79,2.84,3.49,1.46c.16.07.24.14.23.32s0,.42,0,.65Z"/><path class="cls-2" d="M29.66,20.75l.42,12.72H26.47l.35-12.72Z"/><path class="cls-2" d="M20.36,20.73H23c.18,0,.17.13.17.24,0,.6.05,1.19.06,1.78.06,2.06.12,4.13.19,6.19,0,1.42.09,2.84.14,4.26a2.42,2.42,0,0,1,0,.27H19.94Z"/><path class="cls-2" d="M33.36,20.74h2.77l.41,12.72H33Z"/><path class="cls-2" d="M17,33.48H13.49c0-.12,0-.24,0-.35.07-2.88.14-5.77.22-8.65,0-1.16.08-2.31.1-3.47,0-.23.08-.29.3-.29.82,0,1.63,0,2.48,0Z"/><path class="cls-2" d="M12.94,19.93V18.59H37.07v1.34Z"/></g></g></g></svg>