<svg xmlns="http://www.w3.org/2000/svg" viewBox="0 0 30 30"><defs><style>.cls-1{fill:gray;}</style></defs><title>Map_Icon</title><g id="Layer_2" data-name="Layer 2"><g id="Mappa"><g id="TabBar_copy_2" data-name="TabBar copy 2"><path class="cls-1" d="M0,4.06c.57.27,1.07.5,1.55.75s1,.59,1.56.87l3,1.62c.34.18.67.37,1,.57a1.63,1.63,0,0,0,1.95-.19,10,10,0,0,1,1.09-.6c1.37-.7,2.77-1.36,4.12-2.11a.78.78,0,0,1,.95,0c1,.55,2,1,3,1.5.28.15.41.58.58.9.47.85.92,1.71,1.4,2.61L15.36,7.53V13.2H14.29V7.5c-.57.27-1.07.49-1.55.74s-1,.58-1.47.84c-.83.43-1.68.82-2.5,1.27a.7.7,0,0,0-.26.53c0,1.5,0,3,0,4.51,0,.19,0,.37,0,.6H7.41c0-.17,0-.35,0-.53,0-1.33-.08-2.67,0-4a1.4,1.4,0,0,0-1-1.53C5.46,9.46,4.53,9,3.6,8.48c-.43-.23-.85-.48-1.39-.79v.78c0,5,0,10,0,15.06a1.19,1.19,0,0,0,.75,1.14c1.1.66,2.23,1.27,3.35,1.9l1.09.61v-6.5H8.5V27l2.6-1.71,2.05-1.4a8.17,8.17,0,0,1,.82-.56c.28-.15.29-.36.29-.63,0-1.45,0-2.9,0-4.35,0-.18,0-.37,0-.58h1.09c0,.82,0,1.6,0,2.38s0,1.78,0,2.66a.91.91,0,0,0,.3.64c.78.54,1.61,1,2.41,1.53s1.38.93,2.07,1.39c.32.21.67.39,1.07.62V20.67h1.12v6.48c.63-.32,1.17-.59,1.7-.88.91-.49,1.81-1,2.71-1.5a5.94,5.94,0,0,0,.86-.49c.11-.09.13-.33.13-.5q0-4.71,0-9.43A4.22,4.22,0,0,1,28.61,12c.27-.42.56-.84.84-1.25.12-.17.26-.32.47-.57,0,.24.05.37.05.49,0,4.78,0,9.56,0,14.34,0,.61-.47.69-.79.89-.94.58-1.91,1.1-2.87,1.63-.53.29-1.08.54-1.6.83-.83.46-1.63,1-2.46,1.42-.37.2-.73.31-1.06-.14a2.61,2.61,0,0,0-.74-.5c-.81-.5-1.62-1-2.42-1.51-1-.66-2-1.36-3-2a.52.52,0,0,0-.46,0c-.95.62-1.88,1.27-2.82,1.9-.78.52-1.57,1-2.35,1.54-.33.22-.64.47-1,.72a.74.74,0,0,1-.92.09c-.93-.55-1.88-1.09-2.82-1.63l-3.58-2.1a4.64,4.64,0,0,0-.81-.48C0,25.54,0,25.3,0,25Q0,14.78,0,4.51C0,4.39,0,4.27,0,4.06Z"/><path class="cls-1" d="M25.18,14.68a11.44,11.44,0,0,0-1.68-4.19c-.6-.91-1.39-1.71-2-2.61a5.16,5.16,0,0,1-.78-4.46A4.56,4.56,0,0,1,23.45.37,4.33,4.33,0,0,1,25.87.05,4.71,4.71,0,0,1,29,1.92a4.74,4.74,0,0,1,.83,4,6.29,6.29,0,0,1-1.36,2.54,14.34,14.34,0,0,0-2.16,3.17C25.93,12.67,25.56,13.71,25.18,14.68Zm1.77-10a1.8,1.8,0,0,0-1.71-1.74A1.73,1.73,0,0,0,23.56,4.7a1.68,1.68,0,0,0,1.68,1.65A1.73,1.73,0,0,0,26.95,4.68Z"/><path class="cls-1" d="M3.49,17.31a1.24,1.24,0,0,1,1.28-1.25A1.42,1.42,0,0,1,6,17.31a1.35,1.35,0,0,1-1.31,1.21A1.15,1.15,0,0,1,3.49,17.31Z"/><path class="cls-1" d="M26.5,17.33a1.15,1.15,0,0,1-1.28,1.19,1.12,1.12,0,0,1-1.17-1.27,1.15,1.15,0,0,1,1.23-1.18A1.22,1.22,0,0,1,26.5,17.33Z"/><path class="cls-1" d="M13.61,14.82a3.09,3.09,0,0,1,2.88.1.86.86,0,0,1-.13.18c-.35.29.05,1.1-.76,1.08-.49,0-1,0-1.46,0-.08,0-.2-.16-.23-.27C13.8,15.57,13.72,15.22,13.61,14.82Z"/><path class="cls-1" d="M7.1,17.52h2l.56,1.3a4.64,4.64,0,0,1-2.94.07Z"/><path class="cls-1" d="M10.11,16.77l2.06-1.25L13,16.8l-2.11,1.29Z"/><path class="cls-1" d="M17.81,15.59l2,1.16a6.54,6.54,0,0,1-.44,1,.56.56,0,0,1-.5.19,10.68,10.68,0,0,1-1.55-.82c-.44-.29-.08-.62.05-.92A4.09,4.09,0,0,1,17.81,15.59Z"/><path class="cls-1" d="M20.4,18.81c.17-.41.31-.78.49-1.14a.44.44,0,0,1,.35-.21,2.78,2.78,0,0,0,1.64,0l.41,1.41A4.09,4.09,0,0,1,20.4,18.81Z"/></g></g></g></svg>