<svg xmlns="http://www.w3.org/2000/svg" viewBox="0 0 28.33 30"><defs><style>.cls-1{fill:gray;}</style></defs><title>Search_Icon</title><g id="Layer_2" data-name="Layer 2"><g id="Mappa"><g id="TabBar_copy_2" data-name="TabBar copy 2"><path class="cls-1" d="M0,12.05A12,12,0,0,1,8.16.63,11.84,11.84,0,0,1,21.69,5.11,11.88,11.88,0,0,1,21.59,19c-1,1.34-.78,2,.29,3.06,2.13,2,4.2,4.11,6.18,6.28l.1.13a1,1,0,0,1-1.37,1.35l-.16-.13c-2.22-2.09-4.38-4.26-6.46-6.5a2,2,0,0,0-2.83-.48A11.88,11.88,0,0,1,0,12.05ZM12.08,1.42a10.63,10.63,0,0,0-.38,21.25,10.62,10.62,0,0,0,.38-21.25Z"/></g></g></g></svg>